<?xml version="1.0" encoding="UTF-8" standalone="no"?>
<!DOCTYPE svg PUBLIC "-//W3C//DTD SVG 1.1//EN"
 "http://www.w3.org/Graphics/SVG/1.1/DTD/svg11.dtd">
<!-- Generated by graphviz version 2.47.3 (20210619.1520)
 -->
<!-- Title: dependencies Pages: 1 -->
<svg width="2218pt" height="247pt"
 viewBox="0.00 0.00 2218.00 246.80" xmlns="http://www.w3.org/2000/svg" xmlns:xlink="http://www.w3.org/1999/xlink">
<g id="graph0" class="graph" transform="scale(1 1) rotate(0) translate(4 242.8)">
<title>dependencies</title>
<polygon fill="white" stroke="transparent" points="-4,4 -4,-242.8 2214,-242.8 2214,4 -4,4"/>
<text text-anchor="middle" x="1105" y="-8.2" font-family="sans-serif" font-size="14.00">dependencies</text>
<g id="clust1" class="cluster">
<title>cluster_AppModule</title>
<polygon fill="none" stroke="black" stroke-dasharray="1,5" points="8,-32.8 8,-230.8 2202,-230.8 2202,-32.8 8,-32.8"/>
</g>
<g id="clust2" class="cluster">
<title>cluster_AppModule_declarations</title>
<polygon fill="none" stroke="black" points="16,-40.8 16,-92.8 2194,-92.8 2194,-40.8 16,-40.8"/>
</g>
<g id="clust18" class="cluster">
<title>cluster_AppModule_bootstrap</title>
<polygon fill="none" stroke="black" points="1060,-170.8 1060,-222.8 1184,-222.8 1184,-170.8 1060,-170.8"/>
</g>
<!-- AddCarDialogComponent -->
<g id="node1" class="node">
<title>AddCarDialogComponent</title>
<polygon fill="#ffffb3" stroke="black" points="2185.75,-84.8 2022.25,-84.8 2022.25,-48.8 2185.75,-48.8 2185.75,-84.8"/>
<text text-anchor="middle" x="2104" y="-62.6" font-family="Times,serif" font-size="14.00">AddCarDialogComponent</text>
</g>
<!-- AppModule -->
<g id="node14" class="node">
<title>AppModule</title>
<polygon fill="#8dd3c7" stroke="black" points="1163.66,-149.8 1160.66,-153.8 1139.66,-153.8 1136.66,-149.8 1080.34,-149.8 1080.34,-113.8 1163.66,-113.8 1163.66,-149.8"/>
<text text-anchor="middle" x="1122" y="-127.6" font-family="Times,serif" font-size="14.00">AppModule</text>
</g>
<!-- AddCarDialogComponent&#45;&gt;AppModule -->
<g id="edge1" class="edge">
<title>AddCarDialogComponent&#45;&gt;AppModule</title>
<path fill="none" stroke="black" d="M2104,-84.89C2104,-107.93 2104,-144.8 2104,-144.8 2104,-144.8 1173.88,-144.8 1173.88,-144.8"/>
<polygon fill="black" stroke="black" points="1173.88,-141.3 1163.88,-144.8 1173.88,-148.3 1173.88,-141.3"/>
</g>
<!-- AdminCarsComponent -->
<g id="node2" class="node">
<title>AdminCarsComponent</title>
<polygon fill="#ffffb3" stroke="black" points="2003.88,-84.8 1858.12,-84.8 1858.12,-48.8 2003.88,-48.8 2003.88,-84.8"/>
<text text-anchor="middle" x="1931" y="-62.6" font-family="Times,serif" font-size="14.00">AdminCarsComponent</text>
</g>
<!-- AdminCarsComponent&#45;&gt;AppModule -->
<g id="edge2" class="edge">
<title>AdminCarsComponent&#45;&gt;AppModule</title>
<path fill="none" stroke="black" d="M1931,-84.84C1931,-106.46 1931,-139.8 1931,-139.8 1931,-139.8 1173.79,-139.8 1173.79,-139.8"/>
<polygon fill="black" stroke="black" points="1173.79,-136.3 1163.79,-139.8 1173.79,-143.3 1173.79,-136.3"/>
</g>
<!-- AdminLoginComponent -->
<g id="node3" class="node">
<title>AdminLoginComponent</title>
<polygon fill="#ffffb3" stroke="black" points="1839.66,-84.8 1686.34,-84.8 1686.34,-48.8 1839.66,-48.8 1839.66,-84.8"/>
<text text-anchor="middle" x="1763" y="-62.6" font-family="Times,serif" font-size="14.00">AdminLoginComponent</text>
</g>
<!-- AdminLoginComponent&#45;&gt;AppModule -->
<g id="edge3" class="edge">
<title>AdminLoginComponent&#45;&gt;AppModule</title>
<path fill="none" stroke="black" d="M1763,-85.02C1763,-105.17 1763,-134.8 1763,-134.8 1763,-134.8 1174.06,-134.8 1174.06,-134.8"/>
<polygon fill="black" stroke="black" points="1174.06,-131.3 1164.06,-134.8 1174.06,-138.3 1174.06,-131.3"/>
</g>
<!-- AdminOrderComponent -->
<g id="node4" class="node">
<title>AdminOrderComponent</title>
<polygon fill="#ffffb3" stroke="black" points="1668.36,-84.8 1515.64,-84.8 1515.64,-48.8 1668.36,-48.8 1668.36,-84.8"/>
<text text-anchor="middle" x="1592" y="-62.6" font-family="Times,serif" font-size="14.00">AdminOrderComponent</text>
</g>
<!-- AdminOrderComponent&#45;&gt;AppModule -->
<g id="edge4" class="edge">
<title>AdminOrderComponent&#45;&gt;AppModule</title>
<path fill="none" stroke="black" d="M1592,-85.02C1592,-103.63 1592,-129.8 1592,-129.8 1592,-129.8 1173.71,-129.8 1173.71,-129.8"/>
<polygon fill="black" stroke="black" points="1173.71,-126.3 1163.71,-129.8 1173.71,-133.3 1173.71,-126.3"/>
</g>
<!-- AppComponent -->
<g id="node5" class="node">
<title>AppComponent</title>
<polygon fill="#ffffb3" stroke="black" points="1497.94,-84.8 1392.06,-84.8 1392.06,-48.8 1497.94,-48.8 1497.94,-84.8"/>
<text text-anchor="middle" x="1445" y="-62.6" font-family="Times,serif" font-size="14.00">AppComponent</text>
</g>
<!-- AppComponent&#45;&gt;AppModule -->
<g id="edge5" class="edge">
<title>AppComponent&#45;&gt;AppModule</title>
<path fill="none" stroke="black" d="M1445,-84.83C1445,-101.86 1445,-124.8 1445,-124.8 1445,-124.8 1173.9,-124.8 1173.9,-124.8"/>
<polygon fill="black" stroke="black" points="1173.9,-121.3 1163.9,-124.8 1173.9,-128.3 1173.9,-121.3"/>
</g>
<!-- BookCarComponent -->
<g id="node6" class="node">
<title>BookCarComponent</title>
<polygon fill="#ffffb3" stroke="black" points="1373.88,-84.8 1242.12,-84.8 1242.12,-48.8 1373.88,-48.8 1373.88,-84.8"/>
<text text-anchor="middle" x="1308" y="-62.6" font-family="Times,serif" font-size="14.00">BookCarComponent</text>
</g>
<!-- BookCarComponent&#45;&gt;AppModule -->
<g id="edge6" class="edge">
<title>BookCarComponent&#45;&gt;AppModule</title>
<path fill="none" stroke="black" d="M1308,-85.04C1308,-100.37 1308,-119.8 1308,-119.8 1308,-119.8 1173.74,-119.8 1173.74,-119.8"/>
<polygon fill="black" stroke="black" points="1173.74,-116.3 1163.74,-119.8 1173.74,-123.3 1173.74,-116.3"/>
</g>
<!-- BookingConfirmationComponent -->
<g id="node7" class="node">
<title>BookingConfirmationComponent</title>
<polygon fill="#ffffb3" stroke="black" points="1224.49,-84.8 1019.51,-84.8 1019.51,-48.8 1224.49,-48.8 1224.49,-84.8"/>
<text text-anchor="middle" x="1122" y="-62.6" font-family="Times,serif" font-size="14.00">BookingConfirmationComponent</text>
</g>
<!-- BookingConfirmationComponent&#45;&gt;AppModule -->
<g id="edge7" class="edge">
<title>BookingConfirmationComponent&#45;&gt;AppModule</title>
<path fill="none" stroke="black" d="M1122,-84.91C1122,-84.91 1122,-103.79 1122,-103.79"/>
<polygon fill="black" stroke="black" points="1118.5,-103.79 1122,-113.79 1125.5,-103.79 1118.5,-103.79"/>
</g>
<!-- CarsComponent -->
<g id="node8" class="node">
<title>CarsComponent</title>
<polygon fill="#ffffb3" stroke="black" points="1001.49,-84.8 894.51,-84.8 894.51,-48.8 1001.49,-48.8 1001.49,-84.8"/>
<text text-anchor="middle" x="948" y="-62.6" font-family="Times,serif" font-size="14.00">CarsComponent</text>
</g>
<!-- CarsComponent&#45;&gt;AppModule -->
<g id="edge8" class="edge">
<title>CarsComponent&#45;&gt;AppModule</title>
<path fill="none" stroke="black" d="M948,-85.04C948,-100.37 948,-119.8 948,-119.8 948,-119.8 1070.32,-119.8 1070.32,-119.8"/>
<polygon fill="black" stroke="black" points="1070.32,-123.3 1080.32,-119.8 1070.32,-116.3 1070.32,-123.3"/>
</g>
<!-- CarsItemComponent -->
<g id="node9" class="node">
<title>CarsItemComponent</title>
<polygon fill="#ffffb3" stroke="black" points="876.15,-84.8 743.85,-84.8 743.85,-48.8 876.15,-48.8 876.15,-84.8"/>
<text text-anchor="middle" x="810" y="-62.6" font-family="Times,serif" font-size="14.00">CarsItemComponent</text>
</g>
<!-- CarsItemComponent&#45;&gt;AppModule -->
<g id="edge9" class="edge">
<title>CarsItemComponent&#45;&gt;AppModule</title>
<path fill="none" stroke="black" d="M810,-84.83C810,-101.86 810,-124.8 810,-124.8 810,-124.8 1070.25,-124.8 1070.25,-124.8"/>
<polygon fill="black" stroke="black" points="1070.25,-128.3 1080.25,-124.8 1070.25,-121.3 1070.25,-128.3"/>
</g>
<!-- CustomerServiceComponent -->
<g id="node10" class="node">
<title>CustomerServiceComponent</title>
<polygon fill="#ffffb3" stroke="black" points="725.75,-84.8 548.25,-84.8 548.25,-48.8 725.75,-48.8 725.75,-84.8"/>
<text text-anchor="middle" x="637" y="-62.6" font-family="Times,serif" font-size="14.00">CustomerServiceComponent</text>
</g>
<!-- CustomerServiceComponent&#45;&gt;AppModule -->
<g id="edge10" class="edge">
<title>CustomerServiceComponent&#45;&gt;AppModule</title>
<path fill="none" stroke="black" d="M637,-85.02C637,-103.63 637,-129.8 637,-129.8 637,-129.8 1070.23,-129.8 1070.23,-129.8"/>
<polygon fill="black" stroke="black" points="1070.23,-133.3 1080.23,-129.8 1070.23,-126.3 1070.23,-133.3"/>
</g>
<!-- LocationsComponent -->
<g id="node11" class="node">
<title>LocationsComponent</title>
<polygon fill="#ffffb3" stroke="black" points="530.04,-84.8 393.96,-84.8 393.96,-48.8 530.04,-48.8 530.04,-84.8"/>
<text text-anchor="middle" x="462" y="-62.6" font-family="Times,serif" font-size="14.00">LocationsComponent</text>
</g>
<!-- LocationsComponent&#45;&gt;AppModule -->
<g id="edge11" class="edge">
<title>LocationsComponent&#45;&gt;AppModule</title>
<path fill="none" stroke="black" d="M462,-85.02C462,-105.17 462,-134.8 462,-134.8 462,-134.8 1070.21,-134.8 1070.21,-134.8"/>
<polygon fill="black" stroke="black" points="1070.21,-138.3 1080.21,-134.8 1070.21,-131.3 1070.21,-138.3"/>
</g>
<!-- OrderDetailDialogComponent -->
<g id="node12" class="node">
<title>OrderDetailDialogComponent</title>
<polygon fill="#ffffb3" stroke="black" points="376.29,-84.8 189.71,-84.8 189.71,-48.8 376.29,-48.8 376.29,-84.8"/>
<text text-anchor="middle" x="283" y="-62.6" font-family="Times,serif" font-size="14.00">OrderDetailDialogComponent</text>
</g>
<!-- OrderDetailDialogComponent&#45;&gt;AppModule -->
<g id="edge12" class="edge">
<title>OrderDetailDialogComponent&#45;&gt;AppModule</title>
<path fill="none" stroke="black" d="M283,-84.84C283,-106.46 283,-139.8 283,-139.8 283,-139.8 1070.11,-139.8 1070.11,-139.8"/>
<polygon fill="black" stroke="black" points="1070.11,-143.3 1080.11,-139.8 1070.11,-136.3 1070.11,-143.3"/>
</g>
<!-- OrderLoginComponent -->
<g id="node13" class="node">
<title>OrderLoginComponent</title>
<polygon fill="#ffffb3" stroke="black" points="171.92,-84.8 24.08,-84.8 24.08,-48.8 171.92,-48.8 171.92,-84.8"/>
<text text-anchor="middle" x="98" y="-62.6" font-family="Times,serif" font-size="14.00">OrderLoginComponent</text>
</g>
<!-- OrderLoginComponent&#45;&gt;AppModule -->
<g id="edge13" class="edge">
<title>OrderLoginComponent&#45;&gt;AppModule</title>
<path fill="none" stroke="black" d="M98,-84.89C98,-107.93 98,-144.8 98,-144.8 98,-144.8 1070.27,-144.8 1070.27,-144.8"/>
<polygon fill="black" stroke="black" points="1070.27,-148.3 1080.27,-144.8 1070.27,-141.3 1070.27,-148.3"/>
</g>
<!-- AppComponent  -->
<g id="node15" class="node">
<title>AppComponent </title>
<polygon fill="#80b1d3" stroke="black" points="1176.44,-214.8 1067.56,-214.8 1067.56,-178.8 1176.44,-178.8 1176.44,-214.8"/>
<text text-anchor="middle" x="1122" y="-192.6" font-family="Times,serif" font-size="14.00">AppComponent </text>
</g>
<!-- AppModule&#45;&gt;AppComponent  -->
<g id="edge14" class="edge">
<title>AppModule&#45;&gt;AppComponent </title>
<path fill="none" stroke="black" stroke-dasharray="1,5" d="M1122,-149.91C1122,-149.91 1122,-168.79 1122,-168.79"/>
<polygon fill="black" stroke="black" points="1118.5,-168.79 1122,-178.79 1125.5,-168.79 1118.5,-168.79"/>
</g>
</g>
</svg>
